# xmcd CD database file
#
# Track frame offsets:
#	150
#	14613
#	29668
#	43855
#	57476
#	71913
#	85889
#	99741
#	113351
#	127417
#	141266
#	156514
#	170681
#	184499
#	198843
#	211403
#	226477
#	240791
#	253305
#	267998
#
# Disc length: 3747 seconds
#
# Revision: 2
# Processed by: cddbd v1.5.2PL0 Copyright (c) Steve Scherf et al.
# Submitted via: jetAudio 7
#
DISCID=380ea114
DTITLE=Various Artist - The Best There Ever Was
DYEAR=1900
DGENRE=Blues
TTITLE0=Garfield Akers - Dough Roller Blues
TTITLE1=Tommy Johnson - Big Road Blues
TTITLE2=Son House - My Black Mamma - Part 1
TTITLE3=Mississippi John Hurt - Ain't No Tellin
TTITLE4=Skip James - Cypress Grove
TTITLE5=Blind Willie Johnson - I Know His Blood Can Make Me Whole
TTITLE6=Blind Willie McTell - Mama, Tain't Long Fo'Day
TTITLE7=Jaydee Short - Barefoot Blues
TTITLE8=Robert Wilkins - I'll Go With Her Blues
TTITLE9=Ed Bell - Squabblin Blues
TTITLE10=Charlie Patton - It Won't Be Long
TTITLE11=Frank Stokes - What's The Matter Blues
TTITLE12=Geeshie Wiley - Last Kind Word Blues
TTITLE13=William Harris - Bullfrog Blues
TTITLE14=Blind Blake - You Gonna Quit Me Blues
TTITLE15=King Solomon Hill - The Gone Dead Train
TTITLE16=Memphis Minnie /sOutdoor Blues
TTITLE17=Blind Lemon Jefferson - Prison Cell Blues
TTITLE18=Sam Collins - Graveyard Digger's Blues
TTITLE19=Furry Lewis - Big Chief Blues
EXTD=
EXTT0=
EXTT1=
EXTT2=
EXTT3=
EXTT4=
EXTT5=
EXTT6=
EXTT7=
EXTT8=
EXTT9=
EXTT10=
EXTT11=
EXTT12=
EXTT13=
EXTT14=
EXTT15=
EXTT16=
EXTT17=
EXTT18=
EXTT19=
PLAYORDER=
